# xmcd CD database file
#
# Track frame offsets:
#	150
#	2935
#	26065
#	46935
#	68778
#	88313
#	111198
#	138985
#	158648
#	175875
#
# Disc length: 2616 seconds
#
# Revision: 0
# Processed by: cddbd v1.5PL3 Copyright (c) Steve Scherf et al.
# Submitted via: CDex 1.50
#
DISCID=810a360a
DTITLE=小林武史 - TESTA ROSSA
DYEAR=1989
DGENRE=JPop
TTITLE0=TUBE LIFT
TTITLE1=(Down to) GOD'S FILE
TTITLE2=FOOL FOR LOVE
TTITLE3=WaterColour
TTITLE4=TERRITORY
TTITLE5=夏の午後
TTITLE6=WILD SIGN
TTITLE7=僕の中のスクリーン
TTITLE8=STILL CRYING／STILL LIFE
TTITLE9=WITHOUT
EXTD=YEAR: 1989
EXTT0=
EXTT1=
EXTT2=
EXTT3=
EXTT4=
EXTT5=
EXTT6=
EXTT7=
EXTT8=
EXTT9=
PLAYORDER=
